<svg xmlns="http://www.w3.org/2000/svg" xmlns:xlink="http://www.w3.org/1999/xlink" width="1920" height="1080" viewBox="0 0 1920 1080">
  <defs>
    <clipPath id="clip-path">
      <rect id="Rectangle_2243" data-name="Rectangle 2243" width="1920" height="1080" fill="none"/>
    </clipPath>
  </defs>
  <g id="Group_1815" data-name="Group 1815" transform="translate(-83.502 -676.49)" opacity="0.7">
    <g id="Group_1814" data-name="Group 1814" transform="translate(83.502 676.49)" clip-path="url(#clip-path)">
      <g id="Group_1813" data-name="Group 1813" transform="translate(-187.522 -540.626)" style="mix-blend-mode: overlay;isolation: isolate">
        <g id="Group_1810" data-name="Group 1810" transform="translate(224.742)">
          <path id="Path_987" data-name="Path 987" d="M3.51,1139.517C783.161,633.536,1130.652,1928.6,2157.118,464.527" transform="translate(-3.51 -464.527)" fill="none" stroke="#0c033e" stroke-linecap="round" stroke-linejoin="round" stroke-width="1" stroke-dasharray="1 11"/>
          <path id="Path_988" data-name="Path 988" d="M5.384,1137.936C812.037,602.911,1159.163,1899.408,2164.265,479.4" transform="translate(-0.587 -441.327)" fill="none" stroke="#140b44" stroke-linecap="round" stroke-linejoin="round" stroke-width="1.065" stroke-dasharray="1 11"/>
          <path id="Path_989" data-name="Path 989" d="M7.256,1136.355c833.664-564.07,1180.416,733.865,2164.16-642.084" transform="translate(2.334 -418.126)" fill="none" stroke="#1c134a" stroke-linecap="round" stroke-linejoin="round" stroke-width="1.129" stroke-dasharray="1 11"/>
          <path id="Path_990" data-name="Path 990" d="M9.129,1134.773C869.8,541.659,1216.187,1841.033,2178.568,509.142" transform="translate(5.256 -394.928)" fill="none" stroke="#241b51" stroke-linecap="round" stroke-linejoin="round" stroke-width="1.194" stroke-dasharray="1 11"/>
          <path id="Path_991" data-name="Path 991" d="M11,1133.2C898.683,511.035,1244.7,1811.845,2185.715,524.014" transform="translate(8.179 -371.727)" fill="none" stroke="#2b2457" stroke-linecap="round" stroke-linejoin="round" stroke-width="1.258" stroke-dasharray="1 11"/>
          <path id="Path_992" data-name="Path 992" d="M12.876,1131.615c914.688-651.2,1260.332,651.044,2179.991-592.729" transform="translate(11.101 -348.529)" fill="none" stroke="#332c5d" stroke-linecap="round" stroke-linejoin="round" stroke-width="1.323" stroke-dasharray="1 11"/>
          <path id="Path_993" data-name="Path 993" d="M14.749,1130.033c941.7-680.248,1286.974,623.437,2185.267-576.276" transform="translate(14.023 -325.328)" fill="none" stroke="#3b3463" stroke-linecap="round" stroke-linejoin="round" stroke-width="1.387" stroke-dasharray="1 11"/>
          <path id="Path_994" data-name="Path 994" d="M16.621,1128.454c968.7-709.294,1313.613,595.83,2190.546-559.826" transform="translate(16.943 -302.129)" fill="none" stroke="#433c6a" stroke-linecap="round" stroke-linejoin="round" stroke-width="1.452" stroke-dasharray="1 11"/>
          <path id="Path_995" data-name="Path 995" d="M18.5,1126.873C1014.2,388.536,1358.745,1695.1,2214.314,583.5" transform="translate(19.867 -278.929)" fill="none" stroke="#4b4470" stroke-linecap="round" stroke-linejoin="round" stroke-width="1.516" stroke-dasharray="1 11"/>
          <path id="Path_996" data-name="Path 996" d="M20.368,1125.292c1022.717-767.383,1366.892,540.616,2201.1-526.92" transform="translate(22.788 -255.729)" fill="none" stroke="#534c76" stroke-linecap="round" stroke-linejoin="round" stroke-width="1.581" stroke-dasharray="1 11"/>
          <path id="Path_997" data-name="Path 997" d="M22.241,1123.715c1049.725-796.429,1393.526,513.006,2206.377-510.472" transform="translate(25.71 -232.53)" fill="none" stroke="#5a547c" stroke-linecap="round" stroke-linejoin="round" stroke-width="1.645" stroke-dasharray="1 11"/>
          <path id="Path_998" data-name="Path 998" d="M24.113,1122.133c1076.736-825.47,1420.168,485.4,2211.653-494.019" transform="translate(28.631 -209.331)" fill="none" stroke="#625c82" stroke-linecap="round" stroke-linejoin="round" stroke-width="1.71" stroke-dasharray="1 11"/>
          <path id="Path_999" data-name="Path 999" d="M25.987,1120.551c1103.741-854.515,1446.8,457.795,2216.929-477.565" transform="translate(31.554 -186.131)" fill="none" stroke="#6a6589" stroke-linecap="round" stroke-linejoin="round" stroke-width="1.774" stroke-dasharray="1 11"/>
          <path id="Path_1000" data-name="Path 1000" d="M27.86,1118.97C1158.612,235.412,1501.3,1549.158,2250.065,657.858" transform="translate(34.476 -162.931)" fill="none" stroke="#726d8f" stroke-linecap="round" stroke-linejoin="round" stroke-width="1.839" stroke-dasharray="1 11"/>
          <path id="Path_1001" data-name="Path 1001" d="M29.733,1117.393c1157.757-912.6,1500.081,402.578,2227.484-444.664" transform="translate(37.398 -139.732)" fill="none" stroke="#7a7595" stroke-linecap="round" stroke-linejoin="round" stroke-width="1.903" stroke-dasharray="1 11"/>
          <path id="Path_1002" data-name="Path 1002" d="M31.606,1115.807C1216.371,174.16,1558.328,1490.783,2264.366,687.6" transform="translate(40.32 -116.532)" fill="none" stroke="#827d9b" stroke-linecap="round" stroke-linejoin="round" stroke-width="1.968" stroke-dasharray="1 11"/>
          <path id="Path_1003" data-name="Path 1003" d="M33.479,1114.229c1211.773-970.691,1553.359,347.366,2238.036-411.755" transform="translate(43.242 -93.331)" fill="none" stroke="#8985a2" stroke-linecap="round" stroke-linejoin="round" stroke-width="2.032" stroke-dasharray="1 11"/>
          <path id="Path_1004" data-name="Path 1004" d="M35.353,1112.647c1238.779-999.736,1579.994,319.759,2243.313-395.3" transform="translate(46.165 -70.131)" fill="none" stroke="#918da8" stroke-linecap="round" stroke-linejoin="round" stroke-width="2.097" stroke-dasharray="1 11"/>
          <path id="Path_1005" data-name="Path 1005" d="M37.226,1129.3C1303.013,100.521,1643.859,1421.45,2285.815,750.449" transform="translate(49.087 -65.165)" fill="none" stroke="#9995ae" stroke-linecap="round" stroke-linejoin="round" stroke-width="2.161" stroke-dasharray="1 11"/>
          <path id="Path_1006" data-name="Path 1006" d="M39.1,1148.58c1292.795-1057.828,1633.275,264.545,2253.865-362.4" transform="translate(52.009 -62.825)" fill="none" stroke="#a19db4" stroke-linecap="round" stroke-linejoin="round" stroke-width="2.226" stroke-dasharray="1 11"/>
          <path id="Path_1007" data-name="Path 1007" d="M40.972,1167.929C1360.777,81.058,1700.884,1404.865,2300.116,821.981" transform="translate(54.931 -60.555)" fill="none" stroke="#a9a6bb" stroke-linecap="round" stroke-linejoin="round" stroke-width="2.29" stroke-dasharray="1 11"/>
          <path id="Path_1008" data-name="Path 1008" d="M42.845,1187.345c1346.811-1115.914,1686.548,209.331,2264.42-329.5" transform="translate(57.853 -58.352)" fill="none" stroke="#b1aec1" stroke-linecap="round" stroke-linejoin="round" stroke-width="2.355" stroke-dasharray="1 11"/>
          <path id="Path_1009" data-name="Path 1009" d="M44.718,1206.822c1373.819-1144.96,1713.19,181.724,2269.7-313.044" transform="translate(60.774 -56.21)" fill="none" stroke="#b8b6c7" stroke-linecap="round" stroke-linejoin="round" stroke-width="2.419" stroke-dasharray="1 11"/>
          <path id="Path_1010" data-name="Path 1010" d="M46.592,1226.356c1400.824-1174,1739.827,154.117,2274.972-296.591" transform="translate(63.698 -54.124)" fill="none" stroke="#c0becd" stroke-linecap="round" stroke-linejoin="round" stroke-width="2.484" stroke-dasharray="1 11"/>
          <path id="Path_1011" data-name="Path 1011" d="M48.465,1245.941C1476.3,42.895,1814.929,1372.451,2328.716,965.8" transform="translate(66.62 -52.09)" fill="none" stroke="#c8c6d3" stroke-linecap="round" stroke-linejoin="round" stroke-width="2.548" stroke-dasharray="1 11"/>
          <path id="Path_1012" data-name="Path 1012" d="M50.338,1265.575c1454.84-1232.092,1793.1,98.9,2285.524-263.688" transform="translate(69.542 -50.105)" fill="none" stroke="#d0ceda" stroke-linecap="round" stroke-linejoin="round" stroke-width="2.613" stroke-dasharray="1 11"/>
          <path id="Path_1013" data-name="Path 1013" d="M52.211,1285.255c1481.848-1261.138,1819.743,71.293,2290.8-247.234" transform="translate(72.464 -48.163)" fill="none" stroke="#d8d6e0" stroke-linecap="round" stroke-linejoin="round" stroke-width="2.677" stroke-dasharray="1 11"/>
          <path id="Path_1014" data-name="Path 1014" d="M54.084,1304.974C1562.94,14.79,1900.463,1348.66,2350.163,1074.19" transform="translate(75.385 -46.266)" fill="none" stroke="#e0dee6" stroke-linecap="round" stroke-linejoin="round" stroke-width="2.742" stroke-dasharray="1 11"/>
          <path id="Path_1015" data-name="Path 1015" d="M55.957,1324.731C1591.819,5.5,1928.978,1340.815,2357.315,1110.4" transform="translate(78.307 -44.403)" fill="none" stroke="#e7e7ec" stroke-linecap="round" stroke-linejoin="round" stroke-width="2.806" stroke-dasharray="1 11"/>
          <path id="Path_1016" data-name="Path 1016" d="M57.83,1344.524C1620.7-3.746,1957.488,1333,2364.461,1146.646" transform="translate(81.229 -42.577)" fill="none" stroke="#efeff3" stroke-linecap="round" stroke-linejoin="round" stroke-width="2.871" stroke-dasharray="1 11"/>
          <path id="Path_1017" data-name="Path 1017" d="M59.7,1364.352c1589.88-1377.318,1926.3-39.135,2311.913-181.43" transform="translate(84.15 -40.783)" fill="none" stroke="#f7f7f9" stroke-linecap="round" stroke-linejoin="round" stroke-width="2.935" stroke-dasharray="1 11"/>
          <path id="Path_1018" data-name="Path 1018" d="M61.576,1384.206C1678.464-22.153,2014.51,1317.466,2378.765,1219.231" transform="translate(87.073 -39.02)" fill="none" stroke="#fff" stroke-linecap="round" stroke-linejoin="round" stroke-width="3" stroke-dasharray="1 11"/>
        </g>
        <g id="Group_1811" data-name="Group 1811" transform="translate(0 718.241)">
          <path id="Path_1019" data-name="Path 1019" d="M-84.28,848.765C693.371,457.105,775.836,2699.553,2488.389,745.09" transform="translate(84.28 -745.09)" fill="none" stroke="#fff" stroke-linecap="round" stroke-linejoin="round" stroke-width="1"/>
          <path id="Path_1020" data-name="Path 1020" d="M-83.514,855.353C719.4,401.647,822.345,2653.371,2493.853,761.1" transform="translate(85.475 -720.116)" fill="none" stroke="#fefeff" stroke-linecap="round" stroke-linejoin="round" stroke-width="0.976"/>
          <path id="Path_1021" data-name="Path 1021" d="M-82.748,861.939c828.183-515.753,951.6,1745.244,2582.062-84.831" transform="translate(86.67 -695.142)" fill="none" stroke="#fdfdfe" stroke-linecap="round" stroke-linejoin="round" stroke-width="0.952"/>
          <path id="Path_1022" data-name="Path 1022" d="M-81.981,881.613c853.443-577.8,997.343,1692.478,2586.757-75.407" transform="translate(87.866 -683.257)" fill="none" stroke="#fcfdfe" stroke-linecap="round" stroke-linejoin="round" stroke-width="0.927"/>
          <path id="Path_1023" data-name="Path 1023" d="M-81.215,906.013c878.71-639.841,1043.087,1639.708,2591.452-65.984" transform="translate(89.061 -676.097)" fill="none" stroke="#fbfcfe" stroke-linecap="round" stroke-linejoin="round" stroke-width="0.903"/>
          <path id="Path_1024" data-name="Path 1024" d="M-80.448,931.285C823.526,229.4,1008.381,2518.224,2515.7,874.724" transform="translate(90.258 -669.806)" fill="none" stroke="#fafbfd" stroke-linecap="round" stroke-linejoin="round" stroke-width="0.879"/>
          <path id="Path_1025" data-name="Path 1025" d="M-79.683,957.371c929.242-763.937,1134.577,1534.17,2600.845-47.137" transform="translate(91.451 -664.33)" fill="none" stroke="#f9fafd" stroke-linecap="round" stroke-linejoin="round" stroke-width="0.855"/>
          <path id="Path_1026" data-name="Path 1026" d="M-78.917,984.218C875.589,158.234,1101.4,2465.618,2526.623,946.5" transform="translate(92.646 -659.618)" fill="none" stroke="#f8f9fd" stroke-linecap="round" stroke-linejoin="round" stroke-width="0.831"/>
          <path id="Path_1027" data-name="Path 1027" d="M-78.149,1011.779c979.763-888.031,1226.058,1428.626,2610.232-28.3" transform="translate(93.844 -655.616)" fill="none" stroke="#f6f9fc" stroke-linecap="round" stroke-linejoin="round" stroke-width="0.806"/>
          <path id="Path_1028" data-name="Path 1028" d="M-77.384,1040C927.649,89.927,1194.421,2415.861,2537.548,1021.132" transform="translate(95.038 -652.279)" fill="none" stroke="#f5f8fc" stroke-linecap="round" stroke-linejoin="round" stroke-width="0.782"/>
          <path id="Path_1029" data-name="Path 1029" d="M-76.617,1068.85C953.681,56.726,1240.928,2391.938,2543.008,1059.4" transform="translate(96.234 -649.566)" fill="none" stroke="#f4f7fc" stroke-linecap="round" stroke-linejoin="round" stroke-width="0.758"/>
          <path id="Path_1030" data-name="Path 1030" d="M-75.851,1098.276C979.711,24.1,1287.438,2368.594,2548.469,1098.248" transform="translate(97.429 -647.432)" fill="none" stroke="#f3f6fb" stroke-linecap="round" stroke-linejoin="round" stroke-width="0.734"/>
          <path id="Path_1031" data-name="Path 1031" d="M-75.085,1128.243c1080.824-1136.218,1409.032,1217.548,2629.018,9.4" transform="translate(98.624 -645.836)" fill="none" stroke="#f2f5fb" stroke-linecap="round" stroke-linejoin="round" stroke-width="0.71"/>
          <path id="Path_1032" data-name="Path 1032" d="M-74.317,1158.713c1106.086-1198.264,1454.771,1164.777,2633.71,18.816" transform="translate(99.822 -644.744)" fill="none" stroke="#f1f5fb" stroke-linecap="round" stroke-linejoin="round" stroke-width="0.685"/>
          <path id="Path_1033" data-name="Path 1033" d="M-73.552,1189.652c1131.354-1260.314,1500.516,1112,2638.408,28.24" transform="translate(101.016 -644.121)" fill="none" stroke="#f0f4fa" stroke-linecap="round" stroke-linejoin="round" stroke-width="0.661"/>
          <path id="Path_1034" data-name="Path 1034" d="M-72.786,1221.026c1156.621-1322.358,1546.26,1059.236,2643.105,37.66" transform="translate(102.211 -643.936)" fill="none" stroke="#eff3fa" stroke-linecap="round" stroke-linejoin="round" stroke-width="0.637"/>
          <path id="Path_1035" data-name="Path 1035" d="M-72.019,1252.806c1181.88-1384.4,1592,1006.467,2647.8,47.083" transform="translate(103.407 -644.156)" fill="none" stroke="#eef2fa" stroke-linecap="round" stroke-linejoin="round" stroke-width="0.613"/>
          <path id="Path_1036" data-name="Path 1036" d="M-71.253,1284.966c1207.145-1446.451,1637.745,953.7,2652.5,56.507" transform="translate(104.602 -644.753)" fill="none" stroke="#edf1fa" stroke-linecap="round" stroke-linejoin="round" stroke-width="0.589"/>
          <path id="Path_1037" data-name="Path 1037" d="M-70.486,1317.477C1161.924-191.021,1613,2218.4,2586.7,1383.408" transform="translate(105.799 -645.703)" fill="none" stroke="#ecf0f9" stroke-linecap="round" stroke-linejoin="round" stroke-width="0.565"/>
          <path id="Path_1038" data-name="Path 1038" d="M-69.72,1350.315c1257.677-1570.545,1729.231,848.158,2661.885,75.354" transform="translate(106.994 -646.98)" fill="none" stroke="#ebf0f9" stroke-linecap="round" stroke-linejoin="round" stroke-width="0.54"/>
          <path id="Path_1039" data-name="Path 1039" d="M-68.954,1383.456c1282.939-1632.589,1774.976,795.387,2666.58,84.774" transform="translate(108.189 -648.563)" fill="none" stroke="#eaeff9" stroke-linecap="round" stroke-linejoin="round" stroke-width="0.516"/>
          <path id="Path_1040" data-name="Path 1040" d="M-68.187,1416.881c1308.2-1694.633,1820.716,742.618,2671.276,94.2" transform="translate(109.385 -650.427)" fill="none" stroke="#e9eef8" stroke-linecap="round" stroke-linejoin="round" stroke-width="0.492"/>
          <path id="Path_1041" data-name="Path 1041" d="M-67.421,1450.572C1266.047-306.11,1799.037,2140.42,2608.55,1554.193" transform="translate(110.58 -652.556)" fill="none" stroke="#e8edf8" stroke-linecap="round" stroke-linejoin="round" stroke-width="0.468"/>
          <path id="Path_1042" data-name="Path 1042" d="M-66.655,1484.51c1358.733-1818.732,1912.2,637.074,2680.671,113.039" transform="translate(111.775 -654.929)" fill="none" stroke="#e7ecf8" stroke-linecap="round" stroke-linejoin="round" stroke-width="0.444"/>
          <path id="Path_1043" data-name="Path 1043" d="M-65.889,1518.673c1384-1880.778,1957.947,584.3,2685.363,122.463" transform="translate(112.97 -657.533)" fill="none" stroke="#e5ecf7" stroke-linecap="round" stroke-linejoin="round" stroke-width="0.419"/>
          <path id="Path_1044" data-name="Path 1044" d="M-65.122,1553.048c1409.259-1942.823,2003.686,531.538,2690.058,131.888" transform="translate(114.166 -660.348)" fill="none" stroke="#e4ebf7" stroke-linecap="round" stroke-linejoin="round" stroke-width="0.395"/>
          <path id="Path_1045" data-name="Path 1045" d="M-64.356,1587.625C1370.171-417.245,1985.075,2066.388,2630.4,1728.934" transform="translate(115.361 -663.362)" fill="none" stroke="#e3eaf7" stroke-linecap="round" stroke-linejoin="round" stroke-width="0.371"/>
          <path id="Path_1046" data-name="Path 1046" d="M-63.59,1622.384c1459.791-2066.916,2095.173,426,2699.453,150.733" transform="translate(116.556 -666.562)" fill="none" stroke="#e2e9f6" stroke-linecap="round" stroke-linejoin="round" stroke-width="0.347"/>
          <path id="Path_1047" data-name="Path 1047" d="M-62.823,1657.318C1422.23-471.647,2078.092,2030.54,2641.32,1817.474" transform="translate(117.753 -669.934)" fill="none" stroke="#e1e8f6" stroke-linecap="round" stroke-linejoin="round" stroke-width="0.323"/>
          <path id="Path_1048" data-name="Path 1048" d="M-62.057,1692.41C1448.261-498.6,2124.6,2012.866,2646.784,1861.987" transform="translate(118.948 -673.466)" fill="none" stroke="#e0e8f6" stroke-linecap="round" stroke-linejoin="round" stroke-width="0.298"/>
          <path id="Path_1049" data-name="Path 1049" d="M-61.291,1727.654c1535.585-2253.056,2232.4,267.687,2713.539,179" transform="translate(120.143 -677.148)" fill="none" stroke="#dfe7f5" stroke-linecap="round" stroke-linejoin="round" stroke-width="0.274"/>
          <path id="Path_1050" data-name="Path 1050" d="M-60.524,1763.038c1560.847-2315.1,2278.144,214.917,2718.231,188.424" transform="translate(121.339 -680.972)" fill="none" stroke="#dee6f5" stroke-linecap="round" stroke-linejoin="round" stroke-width="0.25"/>
        </g>
        <g id="Group_1812" data-name="Group 1812" transform="translate(246.218 730.677)">
          <path id="Path_1051" data-name="Path 1051" d="M2221.177,1241.819c-842.685,305.886-896.258-400.077-2179.878,166.9" transform="translate(33.965 -78.529)" fill="none" stroke="#fff" stroke-linecap="round" stroke-linejoin="round" stroke-width="3" stroke-dasharray="1 11"/>
          <path id="Path_1052" data-name="Path 1052" d="M2225.634,1234.19c-868.2,331.456-931.469-401.367-2185.283,147.346" transform="translate(32.486 -94.252)" fill="none" stroke="#f8fafd" stroke-linecap="round" stroke-linejoin="round" stroke-width="2.935" stroke-dasharray="1 11"/>
          <path id="Path_1053" data-name="Path 1053" d="M2230.091,1227.059C1336.37,1584.087,1263.412,824.4,39.4,1354.852" transform="translate(31.006 -110.477)" fill="none" stroke="#f2f5fb" stroke-linecap="round" stroke-linejoin="round" stroke-width="2.871" stroke-dasharray="1 11"/>
          <path id="Path_1054" data-name="Path 1054" d="M2234.546,1220.422c-919.232,382.6-1001.887-403.948-2196.093,108.24" transform="translate(29.525 -127.195)" fill="none" stroke="#ebf0f9" stroke-linecap="round" stroke-linejoin="round" stroke-width="2.806" stroke-dasharray="1 11"/>
          <path id="Path_1055" data-name="Path 1055" d="M2239,1214.27c-944.75,408.174-1037.1-405.235-2201.5,88.684" transform="translate(28.048 -144.397)" fill="none" stroke="#e5ebf7" stroke-linecap="round" stroke-linejoin="round" stroke-width="2.742" stroke-dasharray="1 11"/>
          <path id="Path_1056" data-name="Path 1056" d="M2243.457,1208.591c-970.266,433.749-1072.31-406.523-2206.9,69.13" transform="translate(26.569 -162.073)" fill="none" stroke="#dee6f5" stroke-linecap="round" stroke-linejoin="round" stroke-width="2.677" stroke-dasharray="1 11"/>
          <path id="Path_1057" data-name="Path 1057" d="M2247.914,1203.378C1252.135,1662.7,1140.4,795.565,35.608,1252.953" transform="translate(25.087 -180.215)" fill="none" stroke="#d8e1f3" stroke-linecap="round" stroke-linejoin="round" stroke-width="2.613" stroke-dasharray="1 11"/>
          <path id="Path_1058" data-name="Path 1058" d="M2252.37,1198.617c-1021.3,484.889-1142.73-409.1-2217.71,30.018" transform="translate(23.608 -198.808)" fill="none" stroke="#d1dcf1" stroke-linecap="round" stroke-linejoin="round" stroke-width="2.548" stroke-dasharray="1 11"/>
          <path id="Path_1059" data-name="Path 1059" d="M2256.826,1194.293C1210.012,1704.757,1078.886,783.9,33.712,1204.758" transform="translate(22.129 -217.84)" fill="none" stroke="#cbd6ef" stroke-linecap="round" stroke-linejoin="round" stroke-width="2.484" stroke-dasharray="1 11"/>
          <path id="Path_1060" data-name="Path 1060" d="M2261.282,1190.4c-1072.333,536.039-1213.148-411.678-2228.518-9.09" transform="translate(20.65 -237.299)" fill="none" stroke="#c4d1ed" stroke-linecap="round" stroke-linejoin="round" stroke-width="2.419" stroke-dasharray="1 11"/>
          <path id="Path_1061" data-name="Path 1061" d="M2265.74,1186.916C1167.892,1748.526,1017.382,773.95,31.815,1158.272" transform="translate(19.17 -257.173)" fill="none" stroke="#becceb" stroke-linecap="round" stroke-linejoin="round" stroke-width="2.355" stroke-dasharray="1 11"/>
          <path id="Path_1062" data-name="Path 1062" d="M2270.2,1183.838c-1123.366,587.179-1283.571-414.259-2239.332-48.2" transform="translate(17.69 -277.449)" fill="none" stroke="#b7c7e9" stroke-linecap="round" stroke-linejoin="round" stroke-width="2.29" stroke-dasharray="1 11"/>
          <path id="Path_1063" data-name="Path 1063" d="M2274.654,1181.148C1125.772,1793.9,955.87,765.6,29.918,1113.395" transform="translate(16.211 -298.113)" fill="none" stroke="#b0c2e7" stroke-linecap="round" stroke-linejoin="round" stroke-width="2.226" stroke-dasharray="1 11"/>
          <path id="Path_1064" data-name="Path 1064" d="M2279.109,1178.837C1104.714,1817.16,925.114,762,28.971,1091.528" transform="translate(14.733 -319.155)" fill="none" stroke="#aabde5" stroke-linecap="round" stroke-linejoin="round" stroke-width="2.161" stroke-dasharray="1 11"/>
          <path id="Path_1065" data-name="Path 1065" d="M2283.565,1176.888c-1199.913,663.9-1389.2-418.125-2255.544-106.862" transform="translate(13.251 -340.564)" fill="none" stroke="#a3b8e3" stroke-linecap="round" stroke-linejoin="round" stroke-width="2.097" stroke-dasharray="1 11"/>
          <path id="Path_1066" data-name="Path 1066" d="M2288.021,1175.294C1062.59,1864.763,863.609,755.879,27.073,1048.878" transform="translate(11.772 -362.324)" fill="none" stroke="#9db3e1" stroke-linecap="round" stroke-linejoin="round" stroke-width="2.032" stroke-dasharray="1 11"/>
          <path id="Path_1067" data-name="Path 1067" d="M2292.478,1174.041C1041.534,1889.085,832.855,753.338,26.125,1028.07" transform="translate(10.294 -384.427)" fill="none" stroke="#96aede" stroke-linecap="round" stroke-linejoin="round" stroke-width="1.968" stroke-dasharray="1 11"/>
          <path id="Path_1068" data-name="Path 1068" d="M2296.931,1173.12C1020.472,1913.733,802.1,751.127,25.177,1007.591" transform="translate(8.815 -406.858)" fill="none" stroke="#90a9dc" stroke-linecap="round" stroke-linejoin="round" stroke-width="1.903" stroke-dasharray="1 11"/>
          <path id="Path_1069" data-name="Path 1069" d="M2301.392,1172.515C999.411,1938.7,771.346,749.232,24.228,987.432" transform="translate(7.334 -429.607)" fill="none" stroke="#89a4da" stroke-linecap="round" stroke-linejoin="round" stroke-width="1.839" stroke-dasharray="1 11"/>
          <path id="Path_1070" data-name="Path 1070" d="M2305.845,1172.216C978.349,1963.978,740.592,747.648,23.28,967.58" transform="translate(5.855 -452.666)" fill="none" stroke="#839fd8" stroke-linecap="round" stroke-linejoin="round" stroke-width="1.774" stroke-dasharray="1 11"/>
          <path id="Path_1071" data-name="Path 1071" d="M2310.3,1172.218C957.292,1989.552,709.839,746.36,22.331,948.026" transform="translate(4.375 -476.023)" fill="none" stroke="#7c9ad6" stroke-linecap="round" stroke-linejoin="round" stroke-width="1.71" stroke-dasharray="1 11"/>
          <path id="Path_1072" data-name="Path 1072" d="M2314.759,1172.5C936.232,2015.413,679.085,745.359,21.383,928.762" transform="translate(2.896 -499.665)" fill="none" stroke="#7595d4" stroke-linecap="round" stroke-linejoin="round" stroke-width="1.645" stroke-dasharray="1 11"/>
          <path id="Path_1073" data-name="Path 1073" d="M2319.215,1173.075C915.17,2041.55,648.329,744.636,20.435,909.774" transform="translate(1.417 -523.588)" fill="none" stroke="#6f90d2" stroke-linecap="round" stroke-linejoin="round" stroke-width="1.581" stroke-dasharray="1 11"/>
          <path id="Path_1074" data-name="Path 1074" d="M2323.673,1173.907C894.113,2067.961,617.576,744.18,19.486,891.055" transform="translate(-0.063 -547.777)" fill="none" stroke="#688bd0" stroke-linecap="round" stroke-linejoin="round" stroke-width="1.516" stroke-dasharray="1 11"/>
          <path id="Path_1075" data-name="Path 1075" d="M2328.129,1175C873.051,2094.627,586.822,743.989,18.538,872.593" transform="translate(-1.542 -572.228)" fill="none" stroke="#6285ce" stroke-linecap="round" stroke-linejoin="round" stroke-width="1.452" stroke-dasharray="1 11"/>
          <path id="Path_1076" data-name="Path 1076" d="M2332.585,1176.349c-1480.6,945.2-1776.517-432.307-2315-321.964" transform="translate(-3.021 -596.925)" fill="none" stroke="#5b80cc" stroke-linecap="round" stroke-linejoin="round" stroke-width="1.387" stroke-dasharray="1 11"/>
          <path id="Path_1077" data-name="Path 1077" d="M2337.039,1177.938C830.932,2148.7,525.314,744.343,16.642,836.418" transform="translate(-4.5 -621.869)" fill="none" stroke="#557bca" stroke-linecap="round" stroke-linejoin="round" stroke-width="1.323" stroke-dasharray="1 11"/>
          <path id="Path_1078" data-name="Path 1078" d="M2341.5,1179.761C809.873,2176.1,494.563,744.876,15.692,818.686" transform="translate(-5.982 -647.048)" fill="none" stroke="#4e76c8" stroke-linecap="round" stroke-linejoin="round" stroke-width="1.258" stroke-dasharray="1 11"/>
          <path id="Path_1079" data-name="Path 1079" d="M2345.95,1181.81C788.81,2203.721,463.8,745.637,14.745,801.179" transform="translate(-7.459 -672.451)" fill="none" stroke="#4871c6" stroke-linecap="round" stroke-linejoin="round" stroke-width="1.194" stroke-dasharray="1 11"/>
          <path id="Path_1080" data-name="Path 1080" d="M2350.41,1184.077C767.752,2231.56,433.052,746.614,13.8,783.893" transform="translate(-8.94 -698.074)" fill="none" stroke="#416cc4" stroke-linecap="round" stroke-linejoin="round" stroke-width="1.129" stroke-dasharray="1 11"/>
          <path id="Path_1081" data-name="Path 1081" d="M2354.864,1186.556C746.692,2259.611,402.3,747.8,12.848,766.819" transform="translate(-10.419 -723.907)" fill="none" stroke="#3b67c2" stroke-linecap="round" stroke-linejoin="round" stroke-width="1.065" stroke-dasharray="1 11"/>
          <path id="Path_1082" data-name="Path 1082" d="M2359.322,1189.242C725.632,2287.871,371.546,749.2,11.9,749.948" transform="translate(-11.899 -749.948)" fill="none" stroke="#3462c0" stroke-linecap="round" stroke-linejoin="round" stroke-width="1" stroke-dasharray="1 11"/>
        </g>
      </g>
    </g>
  </g>
</svg>
